<mxfile host="Electron" agent="Mozilla/5.0 (X11; Linux x86_64) AppleWebKit/537.36 (KHTML, like Gecko) draw.io/24.7.17 Chrome/128.0.6613.36 Electron/32.0.1 Safari/537.36" version="24.7.17">
  <diagram id="N5nFlDylz3wS6Qd0s4Ny" name="Page-1">
    <mxGraphModel dx="2218" dy="838" grid="1" gridSize="5" guides="1" tooltips="1" connect="1" arrows="1" fold="1" page="1" pageScale="1" pageWidth="850" pageHeight="1100" math="0" shadow="0">
      <root>
        <mxCell id="0" />
        <mxCell id="1" parent="0" />
        <object label="backwards_euler_method" placeholders="1" class_name="backwards_euler_method" block_name="backwards_euler_method_name" id="VrSbkfLm2oYFl8fiRDUs-2">
          <mxCell style="rounded=0;whiteSpace=wrap;html=1;fillColor=#fff2cc;strokeColor=#d6b656;container=0;connectable=0;allowArrows=0;treeFolding=0;moveCells=0;treeMoving=0;comic=0;rotatable=0;expand=1;autosize=1;resizeWidth=1;resizeHeight=1;metaEdit=1;" vertex="1" parent="1">
            <mxGeometry x="-11.999999999999886" y="655" width="160" height="30" as="geometry">
              <mxRectangle x="40" y="400" width="50" height="40" as="alternateBounds" />
            </mxGeometry>
          </mxCell>
        </object>
        <object label="%class_name%" placeholders="1" id="VrSbkfLm2oYFl8fiRDUs-3">
          <mxCell style="rounded=0;whiteSpace=wrap;html=1;fillColor=#ffffff;fontSize=18;connectable=0;allowArrows=0;rotatable=0;cloneable=0;deletable=0;" vertex="1" parent="VrSbkfLm2oYFl8fiRDUs-2">
            <mxGeometry x="12.188596491228072" y="20" width="901.9561403508773" height="40" as="geometry" />
          </mxCell>
        </object>
        <mxCell id="VrSbkfLm2oYFl8fiRDUs-4" value="" style="rounded=0;whiteSpace=wrap;html=1;fillColor=#ffffff;connectable=0;allowArrows=0;container=1;collapsible=0;portConstraintRotation=0;rotatable=0;cloneable=0;deletable=0;recursiveResize=0;" vertex="1" parent="VrSbkfLm2oYFl8fiRDUs-2">
          <mxGeometry x="12.19" y="70" width="902.81" height="260" as="geometry">
            <mxRectangle x="10" y="70" width="50" height="40" as="alternateBounds" />
          </mxGeometry>
        </mxCell>
        <mxCell id="VrSbkfLm2oYFl8fiRDUs-5" style="edgeStyle=orthogonalEdgeStyle;rounded=0;orthogonalLoop=1;jettySize=auto;html=1;exitX=1;exitY=0.5;exitDx=0;exitDy=0;entryX=0;entryY=0.5;entryDx=0;entryDy=0;" edge="1" parent="VrSbkfLm2oYFl8fiRDUs-4" source="VrSbkfLm2oYFl8fiRDUs-6" target="VrSbkfLm2oYFl8fiRDUs-15">
          <mxGeometry relative="1" as="geometry">
            <Array as="points">
              <mxPoint x="178" y="113" />
              <mxPoint x="178" y="165" />
            </Array>
          </mxGeometry>
        </mxCell>
        <object label="%name%" placeholders="1" name="IN1" class_name="InputPort" id="VrSbkfLm2oYFl8fiRDUs-6">
          <mxCell style="triangle;fontSize=14;points=[[0,0.5],[1,0.5]];allowArrows=0;verticalAlign=middle;horizontal=1;spacingTop=0;align=right;spacingLeft=0;spacingRight=8;html=1;comic=0;treeFolding=0;treeMoving=0;resizable=0;movableLabel=1;spacing=2;aspect=fixed;fillColor=#000000;metaEdit=1;" vertex="1" parent="VrSbkfLm2oYFl8fiRDUs-4">
            <mxGeometry x="74.15175438596494" y="105" width="10" height="15" as="geometry">
              <mxPoint x="-9" y="-15" as="offset" />
            </mxGeometry>
          </mxCell>
        </object>
        <object label="%symbol%" placeholders="1" symbol="D" class_name="DelayBlock" block_name="" id="VrSbkfLm2oYFl8fiRDUs-7">
          <mxCell style="whiteSpace=wrap;html=1;aspect=fixed;comic=0;fillColor=#FFFFFF;fontSize=36;align=center;resizable=0;container=1;collapsible=0;points=[];allowArrows=0;metaEdit=1;connectable=0;" vertex="1" parent="VrSbkfLm2oYFl8fiRDUs-4">
            <mxGeometry x="382.8078947368422" y="30" width="80" height="80" as="geometry" />
          </mxCell>
        </object>
        <object label="%name%" placeholders="1" name="OUT1" class_name="OutputPort" id="VrSbkfLm2oYFl8fiRDUs-8">
          <mxCell style="triangle;fillColor=#ffffff;fontSize=14;points=[[1,0.5]];allowArrows=0;verticalAlign=middle;horizontal=1;spacingTop=0;align=left;spacingLeft=4;spacingRight=0;html=1;comic=0;treeFolding=0;treeMoving=0;movable=1;resizable=0;rotatable=1;deletable=1;editable=1;connectable=1;movableLabel=1;spacing=2;aspect=fixed;metaEdit=1;" vertex="1" parent="VrSbkfLm2oYFl8fiRDUs-7">
            <mxGeometry x="70" y="32.5" width="10" height="15" as="geometry">
              <mxPoint x="11" y="-12" as="offset" />
            </mxGeometry>
          </mxCell>
        </object>
        <object label="%name%" placeholders="1" name="IC" class_name="InputPort" id="VrSbkfLm2oYFl8fiRDUs-9">
          <mxCell style="triangle;fontSize=14;points=[[0,0.5]];allowArrows=0;verticalAlign=middle;horizontal=1;spacingTop=0;align=right;spacingLeft=0;spacingRight=8;html=1;comic=0;treeFolding=0;treeMoving=0;resizable=0;movableLabel=1;spacing=2;aspect=fixed;fillColor=#000000;metaEdit=1;" vertex="1" parent="VrSbkfLm2oYFl8fiRDUs-7">
            <mxGeometry y="17.5" width="10" height="15" as="geometry">
              <mxPoint x="-4" y="-8" as="offset" />
            </mxGeometry>
          </mxCell>
        </object>
        <object label="%name%" placeholders="1" name="IN1" class_name="InputPort" id="VrSbkfLm2oYFl8fiRDUs-10">
          <mxCell style="triangle;fontSize=14;points=[[0,0.5]];allowArrows=0;verticalAlign=middle;horizontal=1;spacingTop=0;align=right;spacingLeft=0;spacingRight=8;html=1;comic=0;treeFolding=0;treeMoving=0;resizable=0;movableLabel=1;spacing=2;aspect=fixed;fillColor=#000000;metaEdit=1;" vertex="1" parent="VrSbkfLm2oYFl8fiRDUs-7">
            <mxGeometry y="47.5" width="10" height="15" as="geometry">
              <mxPoint x="-4" y="-8" as="offset" />
            </mxGeometry>
          </mxCell>
        </object>
        <object label="%symbol%" placeholders="1" block_name="" class_name="DeltaTBlock" symbol="&amp;#916;t" id="VrSbkfLm2oYFl8fiRDUs-11">
          <mxCell style="ellipse;whiteSpace=wrap;html=1;comic=0;fillColor=#ffffff;fontSize=24;align=center;allowArrows=0;connectable=0;container=1;collapsible=0;recursiveResize=1;direction=west;resizable=0;metaEdit=1;" vertex="1" parent="VrSbkfLm2oYFl8fiRDUs-4">
            <mxGeometry x="4.152982456140364" y="155" width="80" height="80" as="geometry" />
          </mxCell>
        </object>
        <object label="%name%" placeholders="1" name="OUT1" class_name="OutputPort" id="VrSbkfLm2oYFl8fiRDUs-12">
          <mxCell style="triangle;fillColor=#ffffff;fontSize=14;points=[[1,0.5]];allowArrows=0;verticalAlign=middle;horizontal=1;spacingTop=0;align=left;spacingLeft=4;spacingRight=0;html=1;comic=0;treeFolding=0;treeMoving=0;movable=1;resizable=0;rotatable=1;deletable=1;editable=1;connectable=1;movableLabel=1;spacing=2;aspect=fixed;metaEdit=1;" vertex="1" parent="VrSbkfLm2oYFl8fiRDUs-11">
            <mxGeometry x="70" y="32.5" width="10" height="15" as="geometry">
              <mxPoint x="6" y="-7" as="offset" />
            </mxGeometry>
          </mxCell>
        </object>
        <object label="%symbol%" placeholders="1" symbol="&amp;prod;" class_name="ProductBlock" block_name="" numberOfInputs="2" id="VrSbkfLm2oYFl8fiRDUs-13">
          <mxCell style="whiteSpace=wrap;html=1;aspect=fixed;comic=0;fillColor=#FFFFFF;fontSize=36;align=center;resizable=0;container=1;collapsible=0;points=[];allowArrows=0;spacingTop=-6;metaEdit=1;connectable=0;" vertex="1" parent="VrSbkfLm2oYFl8fiRDUs-4">
            <mxGeometry x="212.81228070175445" y="140" width="80" height="80" as="geometry" />
          </mxCell>
        </object>
        <object label="%name%" placeholders="1" name="OUT1" class_name="OutputPort" id="VrSbkfLm2oYFl8fiRDUs-14">
          <mxCell style="triangle;fillColor=#ffffff;fontSize=14;points=[[1,0.5]];allowArrows=0;verticalAlign=middle;horizontal=1;spacingTop=0;align=left;spacingLeft=4;spacingRight=0;html=1;comic=0;treeFolding=0;treeMoving=0;movable=1;resizable=0;rotatable=1;deletable=1;editable=1;connectable=1;movableLabel=1;spacing=2;aspect=fixed;metaEdit=1;" vertex="1" parent="VrSbkfLm2oYFl8fiRDUs-13">
            <mxGeometry x="70" y="32.5" width="10" height="15" as="geometry">
              <mxPoint x="5" y="-7" as="offset" />
            </mxGeometry>
          </mxCell>
        </object>
        <object label="%name%" placeholders="1" name="IN1" class_name="InputPort" id="VrSbkfLm2oYFl8fiRDUs-15">
          <mxCell style="triangle;fontSize=14;points=[[0,0.5]];allowArrows=0;verticalAlign=middle;horizontal=1;spacingTop=0;align=right;spacingLeft=0;spacingRight=8;html=1;comic=0;treeFolding=0;treeMoving=0;resizable=0;movableLabel=1;spacing=2;aspect=fixed;fillColor=#000000;metaEdit=1;" vertex="1" parent="VrSbkfLm2oYFl8fiRDUs-13">
            <mxGeometry y="17.5" width="10" height="15" as="geometry">
              <mxPoint x="-4" y="-8" as="offset" />
            </mxGeometry>
          </mxCell>
        </object>
        <object label="%name%" placeholders="1" name="IN2" class_name="InputPort" id="VrSbkfLm2oYFl8fiRDUs-16">
          <mxCell style="triangle;fontSize=14;points=[[0,0.5]];allowArrows=0;verticalAlign=middle;horizontal=1;spacingTop=0;align=right;spacingLeft=0;spacingRight=8;html=1;comic=0;treeFolding=0;treeMoving=0;resizable=0;movableLabel=1;spacing=2;aspect=fixed;fillColor=#000000;metaEdit=1;" vertex="1" parent="VrSbkfLm2oYFl8fiRDUs-13">
            <mxGeometry y="47.5" width="10" height="15" as="geometry">
              <mxPoint x="-4" y="-8" as="offset" />
            </mxGeometry>
          </mxCell>
        </object>
        <mxCell id="VrSbkfLm2oYFl8fiRDUs-17" style="edgeStyle=orthogonalEdgeStyle;rounded=0;orthogonalLoop=1;jettySize=auto;html=1;exitX=1;exitY=0.5;exitDx=0;exitDy=0;entryX=0;entryY=0.5;entryDx=0;entryDy=0;" edge="1" parent="VrSbkfLm2oYFl8fiRDUs-4" source="VrSbkfLm2oYFl8fiRDUs-12" target="VrSbkfLm2oYFl8fiRDUs-16">
          <mxGeometry relative="1" as="geometry" />
        </mxCell>
        <object label="%symbol%" placeholders="1" symbol="&amp;sum;" class_name="AdderBlock" block_name="" numberOfInputs="2" id="VrSbkfLm2oYFl8fiRDUs-18">
          <mxCell style="whiteSpace=wrap;html=1;aspect=fixed;comic=0;fillColor=#FFFFFF;fontSize=36;align=center;resizable=0;container=1;collapsible=0;points=[];allowArrows=0;spacingTop=-6;metaEdit=1;connectable=0;" vertex="1" parent="VrSbkfLm2oYFl8fiRDUs-4">
            <mxGeometry x="567.8072807017546" y="75" width="80" height="80" as="geometry" />
          </mxCell>
        </object>
        <object label="%name%" placeholders="1" name="OUT1" class_name="OutputPort" id="VrSbkfLm2oYFl8fiRDUs-19">
          <mxCell style="triangle;fillColor=#ffffff;fontSize=14;points=[[1,0.5]];allowArrows=0;verticalAlign=middle;horizontal=1;spacingTop=0;align=left;spacingLeft=4;spacingRight=0;html=1;comic=0;treeFolding=0;treeMoving=0;movable=1;resizable=0;rotatable=1;deletable=1;editable=1;connectable=1;movableLabel=1;spacing=2;aspect=fixed;metaEdit=1;" vertex="1" parent="VrSbkfLm2oYFl8fiRDUs-18">
            <mxGeometry x="70" y="32.5" width="10" height="15" as="geometry">
              <mxPoint x="5" y="-7" as="offset" />
            </mxGeometry>
          </mxCell>
        </object>
        <object label="%name%" placeholders="1" name="IN1" class_name="InputPort" id="VrSbkfLm2oYFl8fiRDUs-20">
          <mxCell style="triangle;fontSize=14;points=[[0,0.5]];allowArrows=0;verticalAlign=middle;horizontal=1;spacingTop=0;align=right;spacingLeft=0;spacingRight=8;html=1;comic=0;treeFolding=0;treeMoving=0;resizable=0;movableLabel=1;spacing=2;aspect=fixed;fillColor=#000000;metaEdit=1;" vertex="1" parent="VrSbkfLm2oYFl8fiRDUs-18">
            <mxGeometry y="17.5" width="10" height="15" as="geometry">
              <mxPoint x="-4" y="-8" as="offset" />
            </mxGeometry>
          </mxCell>
        </object>
        <object label="%name%" placeholders="1" name="IN2" class_name="InputPort" id="VrSbkfLm2oYFl8fiRDUs-21">
          <mxCell style="triangle;fontSize=14;points=[[0,0.5]];allowArrows=0;verticalAlign=middle;horizontal=1;spacingTop=0;align=right;spacingLeft=0;spacingRight=8;html=1;comic=0;treeFolding=0;treeMoving=0;resizable=0;movableLabel=1;spacing=2;aspect=fixed;fillColor=#000000;metaEdit=1;" vertex="1" parent="VrSbkfLm2oYFl8fiRDUs-18">
            <mxGeometry y="47.5" width="10" height="15" as="geometry">
              <mxPoint x="-4" y="-8" as="offset" />
            </mxGeometry>
          </mxCell>
        </object>
        <object label="%name%" placeholders="1" name="OUT1" class_name="OutputPort" id="VrSbkfLm2oYFl8fiRDUs-22">
          <mxCell style="triangle;fillColor=#ffffff;fontSize=14;points=[[0,0.5],[1,0.5]];allowArrows=0;verticalAlign=middle;horizontal=1;spacingTop=0;align=left;spacingLeft=4;spacingRight=0;html=1;comic=0;treeFolding=0;treeMoving=0;movable=1;resizable=0;rotatable=1;deletable=1;editable=1;connectable=1;movableLabel=1;spacing=2;aspect=fixed;metaEdit=1;" vertex="1" parent="VrSbkfLm2oYFl8fiRDUs-4">
            <mxGeometry x="717.8090350877194" y="107.5" width="10" height="15" as="geometry">
              <mxPoint x="5" y="-7" as="offset" />
            </mxGeometry>
          </mxCell>
        </object>
        <mxCell id="VrSbkfLm2oYFl8fiRDUs-23" style="edgeStyle=orthogonalEdgeStyle;rounded=0;orthogonalLoop=1;jettySize=auto;html=1;exitX=1;exitY=0.5;exitDx=0;exitDy=0;entryX=0;entryY=0.5;entryDx=0;entryDy=0;" edge="1" parent="VrSbkfLm2oYFl8fiRDUs-4" source="VrSbkfLm2oYFl8fiRDUs-19" target="VrSbkfLm2oYFl8fiRDUs-22">
          <mxGeometry relative="1" as="geometry">
            <Array as="points">
              <mxPoint x="708" y="115" />
              <mxPoint x="708" y="115" />
            </Array>
          </mxGeometry>
        </mxCell>
        <mxCell id="VrSbkfLm2oYFl8fiRDUs-24" value="f(t)" style="text;html=1;align=center;verticalAlign=middle;whiteSpace=wrap;rounded=0;fontColor=#FF0000;" vertex="1" parent="VrSbkfLm2oYFl8fiRDUs-4">
          <mxGeometry x="22.8114298245613" y="70" width="62.684210526315795" height="30" as="geometry" />
        </mxCell>
        <mxCell id="VrSbkfLm2oYFl8fiRDUs-25" value="delta t" style="text;html=1;align=center;verticalAlign=middle;whiteSpace=wrap;rounded=0;fontColor=#FF0000;" vertex="1" parent="VrSbkfLm2oYFl8fiRDUs-4">
          <mxGeometry x="72.80985087719296" y="160" width="62.684210526315795" height="30" as="geometry" />
        </mxCell>
        <mxCell id="VrSbkfLm2oYFl8fiRDUs-26" value="I" style="text;html=1;align=center;verticalAlign=middle;whiteSpace=wrap;rounded=0;fontColor=#FF0000;" vertex="1" parent="VrSbkfLm2oYFl8fiRDUs-4">
          <mxGeometry x="456.2008771929823" y="122.5" width="62.684210526315795" height="30" as="geometry" />
        </mxCell>
        <mxCell id="VrSbkfLm2oYFl8fiRDUs-27" style="edgeStyle=orthogonalEdgeStyle;rounded=0;orthogonalLoop=1;jettySize=auto;html=1;exitX=1;exitY=0.5;exitDx=0;exitDy=0;entryX=0;entryY=0.5;entryDx=0;entryDy=0;" edge="1" parent="VrSbkfLm2oYFl8fiRDUs-4" source="VrSbkfLm2oYFl8fiRDUs-28" target="VrSbkfLm2oYFl8fiRDUs-33">
          <mxGeometry relative="1" as="geometry">
            <Array as="points">
              <mxPoint x="198" y="43" />
              <mxPoint x="198" y="115" />
              <mxPoint x="358" y="115" />
              <mxPoint x="358" y="150" />
            </Array>
          </mxGeometry>
        </mxCell>
        <object label="%name%" placeholders="1" name="IC" class_name="InputPort" id="VrSbkfLm2oYFl8fiRDUs-28">
          <mxCell style="triangle;fontSize=14;points=[[0,0.5],[1,0.5]];allowArrows=0;verticalAlign=middle;horizontal=1;spacingTop=0;align=right;spacingLeft=0;spacingRight=8;html=1;comic=0;treeFolding=0;treeMoving=0;resizable=0;movableLabel=1;spacing=2;aspect=fixed;fillColor=#000000;metaEdit=1;" vertex="1" parent="VrSbkfLm2oYFl8fiRDUs-4">
            <mxGeometry x="75.4943859649122" y="35" width="10" height="15" as="geometry">
              <mxPoint x="-9" y="-15" as="offset" />
            </mxGeometry>
          </mxCell>
        </object>
        <mxCell id="VrSbkfLm2oYFl8fiRDUs-29" style="edgeStyle=orthogonalEdgeStyle;rounded=0;orthogonalLoop=1;jettySize=auto;html=1;exitX=1;exitY=0.5;exitDx=0;exitDy=0;entryX=0;entryY=0.5;entryDx=0;entryDy=0;" edge="1" parent="VrSbkfLm2oYFl8fiRDUs-4" source="VrSbkfLm2oYFl8fiRDUs-19" target="VrSbkfLm2oYFl8fiRDUs-10">
          <mxGeometry relative="1" as="geometry">
            <Array as="points">
              <mxPoint x="703" y="115" />
              <mxPoint x="703" y="15" />
              <mxPoint x="343" y="15" />
              <mxPoint x="343" y="85" />
            </Array>
          </mxGeometry>
        </mxCell>
        <mxCell id="VrSbkfLm2oYFl8fiRDUs-30" style="edgeStyle=orthogonalEdgeStyle;rounded=0;orthogonalLoop=1;jettySize=auto;html=1;exitX=1;exitY=0.5;exitDx=0;exitDy=0;entryX=0;entryY=0.5;entryDx=0;entryDy=0;" edge="1" parent="VrSbkfLm2oYFl8fiRDUs-4" source="VrSbkfLm2oYFl8fiRDUs-8" target="VrSbkfLm2oYFl8fiRDUs-20">
          <mxGeometry relative="1" as="geometry" />
        </mxCell>
        <object label="%symbol%" placeholders="1" symbol="D" class_name="DelayBlock" block_name="" id="VrSbkfLm2oYFl8fiRDUs-31">
          <mxCell style="whiteSpace=wrap;html=1;aspect=fixed;comic=0;fillColor=#FFFFFF;fontSize=36;align=center;resizable=0;container=1;collapsible=0;points=[];allowArrows=0;metaEdit=1;connectable=0;" vertex="1" parent="VrSbkfLm2oYFl8fiRDUs-4">
            <mxGeometry x="382.8078947368422" y="125" width="80" height="80" as="geometry" />
          </mxCell>
        </object>
        <object label="%name%" placeholders="1" name="OUT1" class_name="OutputPort" id="VrSbkfLm2oYFl8fiRDUs-32">
          <mxCell style="triangle;fillColor=#ffffff;fontSize=14;points=[[1,0.5]];allowArrows=0;verticalAlign=middle;horizontal=1;spacingTop=0;align=left;spacingLeft=4;spacingRight=0;html=1;comic=0;treeFolding=0;treeMoving=0;movable=1;resizable=0;rotatable=1;deletable=1;editable=1;connectable=1;movableLabel=1;spacing=2;aspect=fixed;metaEdit=1;" vertex="1" parent="VrSbkfLm2oYFl8fiRDUs-31">
            <mxGeometry x="70" y="32.5" width="10" height="15" as="geometry">
              <mxPoint x="11" y="-12" as="offset" />
            </mxGeometry>
          </mxCell>
        </object>
        <object label="%name%" placeholders="1" name="IC" class_name="InputPort" id="VrSbkfLm2oYFl8fiRDUs-33">
          <mxCell style="triangle;fontSize=14;points=[[0,0.5]];allowArrows=0;verticalAlign=middle;horizontal=1;spacingTop=0;align=right;spacingLeft=0;spacingRight=8;html=1;comic=0;treeFolding=0;treeMoving=0;resizable=0;movableLabel=1;spacing=2;aspect=fixed;fillColor=#000000;metaEdit=1;" vertex="1" parent="VrSbkfLm2oYFl8fiRDUs-31">
            <mxGeometry y="17.5" width="10" height="15" as="geometry">
              <mxPoint x="-4" y="-8" as="offset" />
            </mxGeometry>
          </mxCell>
        </object>
        <object label="%name%" placeholders="1" name="IN1" class_name="InputPort" id="VrSbkfLm2oYFl8fiRDUs-34">
          <mxCell style="triangle;fontSize=14;points=[[0,0.5]];allowArrows=0;verticalAlign=middle;horizontal=1;spacingTop=0;align=right;spacingLeft=0;spacingRight=8;html=1;comic=0;treeFolding=0;treeMoving=0;resizable=0;movableLabel=1;spacing=2;aspect=fixed;fillColor=#000000;metaEdit=1;" vertex="1" parent="VrSbkfLm2oYFl8fiRDUs-31">
            <mxGeometry y="47.5" width="10" height="15" as="geometry">
              <mxPoint x="-4" y="-8" as="offset" />
            </mxGeometry>
          </mxCell>
        </object>
        <mxCell id="VrSbkfLm2oYFl8fiRDUs-35" value="I1" style="text;html=1;align=center;verticalAlign=middle;whiteSpace=wrap;rounded=0;fontColor=#FF0000;" vertex="1" parent="VrSbkfLm2oYFl8fiRDUs-31">
          <mxGeometry x="-40.00017543859656" y="-12.5" width="62.684210526315795" height="30" as="geometry" />
        </mxCell>
        <mxCell id="VrSbkfLm2oYFl8fiRDUs-36" style="edgeStyle=orthogonalEdgeStyle;rounded=0;orthogonalLoop=1;jettySize=auto;html=1;exitX=1;exitY=0.5;exitDx=0;exitDy=0;entryX=0;entryY=0.5;entryDx=0;entryDy=0;" edge="1" parent="VrSbkfLm2oYFl8fiRDUs-4" source="VrSbkfLm2oYFl8fiRDUs-32" target="VrSbkfLm2oYFl8fiRDUs-21">
          <mxGeometry relative="1" as="geometry" />
        </mxCell>
        <mxCell id="VrSbkfLm2oYFl8fiRDUs-37" style="edgeStyle=orthogonalEdgeStyle;rounded=0;orthogonalLoop=1;jettySize=auto;html=1;exitX=1;exitY=0.5;exitDx=0;exitDy=0;entryX=0;entryY=0.5;entryDx=0;entryDy=0;" edge="1" parent="VrSbkfLm2oYFl8fiRDUs-4" source="VrSbkfLm2oYFl8fiRDUs-14" target="VrSbkfLm2oYFl8fiRDUs-34">
          <mxGeometry relative="1" as="geometry" />
        </mxCell>
        <object label="%value%" placeholders="1" value="0" block_name="" class_name="ConstantBlock" id="VrSbkfLm2oYFl8fiRDUs-38">
          <mxCell style="ellipse;whiteSpace=wrap;html=1;comic=0;fillColor=#ffffff;fontSize=24;align=center;allowArrows=0;connectable=0;container=1;collapsible=0;recursiveResize=1;direction=west;resizable=0;metaEdit=1;" vertex="1" parent="VrSbkfLm2oYFl8fiRDUs-4">
            <mxGeometry x="212.81140350877183" y="15" width="80" height="80" as="geometry" />
          </mxCell>
        </object>
        <object label="%name%" placeholders="1" name="OUT1" class_name="OutputPort" id="VrSbkfLm2oYFl8fiRDUs-39">
          <mxCell style="triangle;fillColor=#ffffff;fontSize=14;points=[[1,0.5]];allowArrows=0;verticalAlign=middle;horizontal=1;spacingTop=0;align=left;spacingLeft=4;spacingRight=0;html=1;comic=0;treeFolding=0;treeMoving=0;movable=1;resizable=0;rotatable=1;deletable=1;editable=1;connectable=1;movableLabel=1;spacing=2;aspect=fixed;metaEdit=1;" vertex="1" parent="VrSbkfLm2oYFl8fiRDUs-38">
            <mxGeometry x="70" y="32.5" width="10" height="15" as="geometry">
              <mxPoint x="6" y="-7" as="offset" />
            </mxGeometry>
          </mxCell>
        </object>
        <mxCell id="VrSbkfLm2oYFl8fiRDUs-40" style="edgeStyle=orthogonalEdgeStyle;rounded=0;orthogonalLoop=1;jettySize=auto;html=1;exitX=1;exitY=0.5;exitDx=0;exitDy=0;entryX=0;entryY=0.5;entryDx=0;entryDy=0;" edge="1" parent="VrSbkfLm2oYFl8fiRDUs-4" source="VrSbkfLm2oYFl8fiRDUs-39" target="VrSbkfLm2oYFl8fiRDUs-9">
          <mxGeometry relative="1" as="geometry" />
        </mxCell>
        <object label="%name%" placeholders="1" name="IC" class_name="InputPort" id="VrSbkfLm2oYFl8fiRDUs-42">
          <mxCell style="triangle;fontSize=14;points=[[0,0.5],[1,0.5]];allowArrows=0;verticalAlign=middle;horizontal=1;spacingTop=0;align=right;spacingLeft=0;spacingRight=8;html=1;comic=0;treeFolding=0;treeMoving=0;resizable=0;movableLabel=1;spacing=2;aspect=fixed;fillColor=#000000;metaEdit=1;" vertex="1" parent="VrSbkfLm2oYFl8fiRDUs-2">
            <mxGeometry y="32.5" width="10" height="15" as="geometry">
              <mxPoint x="-4" y="-8" as="offset" />
            </mxGeometry>
          </mxCell>
        </object>
        <object label="%name%" placeholders="1" name="IN1" class_name="InputPort" id="VrSbkfLm2oYFl8fiRDUs-43">
          <mxCell style="triangle;fontSize=14;points=[[0,0.5],[1,0.5]];allowArrows=0;verticalAlign=middle;horizontal=1;spacingTop=0;align=right;spacingLeft=0;spacingRight=8;html=1;comic=0;treeFolding=0;treeMoving=0;resizable=0;movableLabel=1;spacing=2;aspect=fixed;fillColor=#000000;metaEdit=1;" vertex="1" parent="VrSbkfLm2oYFl8fiRDUs-2">
            <mxGeometry x="1.7447105263157467" y="5" width="10" height="15" as="geometry">
              <mxPoint x="-4" y="-8" as="offset" />
            </mxGeometry>
          </mxCell>
        </object>
        <object label="%name%" placeholders="1" name="OUT1" class_name="OutputPort" id="VrSbkfLm2oYFl8fiRDUs-41">
          <mxCell style="triangle;fillColor=#ffffff;fontSize=14;points=[[0,0.5],[1,0.5]];allowArrows=0;verticalAlign=middle;horizontal=1;spacingTop=0;align=left;spacingLeft=4;spacingRight=0;html=1;comic=0;treeFolding=0;treeMoving=0;movable=1;resizable=0;rotatable=1;deletable=1;editable=1;connectable=1;movableLabel=1;spacing=2;aspect=fixed;metaEdit=1;" vertex="1" parent="1">
            <mxGeometry x="134.9977192982459" y="655" width="10" height="15" as="geometry">
              <mxPoint x="5" y="-7" as="offset" />
            </mxGeometry>
          </mxCell>
        </object>
      </root>
    </mxGraphModel>
  </diagram>
</mxfile>
